<svg width="4001" height="832" viewBox="0 0 4001 832" fill="none" xmlns="http://www.w3.org/2000/svg">
<path d="M3999.51 423.556L3999 457.186V642.906L4000.03 731.248V756.345L4000.32 769.748C4000.46 776.343 3997.62 782.345 3991.08 783.182C3987.07 783.696 3981.84 783.952 3975.4 783.952H3962.05L3800.93 785.96C3740.35 785.96 3693.44 785.829 3660.22 785.566C3652.41 785.505 3645.47 781.884 3642.28 774.762C3633.53 755.222 3616.8 710.099 3592.09 639.392L3497.29 393.217C3495.41 388.346 3490.44 385.403 3485.26 386.105C3479.72 386.858 3475.57 391.561 3475.52 397.152L3475.1 438.614V574.641L3477.15 710.668V766.886C3477.15 781.944 3473.73 789.808 3466.89 790.478C3433.03 789.474 3400.7 788.972 3369.91 788.972H3354.01L3261.97 790.98H3251.71L3215.61 791.96C3215.06 791.975 3214.51 791.822 3214.05 791.522C3213.52 791.172 3212.84 791.028 3212.2 791.105C3200.56 792.506 3196.43 792.042 3195.4 790.779C3191.94 786.51 3196.29 779.41 3196.29 773.912L3196.8 763.873L3222.66 553.56C3222.66 338.727 3242.17 176.265 3246.28 66.1714L3247.31 24.51C3247.31 21.5029 3338.68 18.8294 3573.58 16.4895C3574.26 16.4827 3574.97 16.6674 3575.41 17.1911C3577.39 19.5629 3580.14 26.4462 3583.66 37.8408C3583.7 37.9646 3583.88 37.9412 3583.88 37.8116C3583.88 37.682 3584.07 37.6546 3584.1 37.7785L3586.96 47.0976C3612.28 118.039 3643.06 199.521 3679.32 291.545C3707.93 363.88 3725.47 408.307 3731.93 424.824C3733.61 429.126 3737.93 431.905 3742.54 431.64C3747.97 431.328 3752.21 426.856 3752.24 421.426L3754.24 22.0003C3754.24 19.3233 3779.21 17.9848 3829.16 17.9848L3957.95 20.4945H3967.54C3983.31 20.4945 3996.2 33.0844 3996.5 48.8535C3998.51 153.953 3999.51 278.854 3999.51 423.556Z" fill="black"/>
<path d="M2878.81 728.39C2878.81 660.503 2880.69 613.351 2884.45 586.932C2884.45 441.46 2886.5 294.818 2890.61 147.005C2889.58 125.937 2889.07 104.701 2889.07 83.2986V66.7449C2887.7 56.3779 2887.02 47.1815 2887.02 39.1554C2887.02 29.2914 2895.54 23.9654 2905.39 24.5178C2972.06 28.2567 3030.93 30.1262 3082 30.1262C3133.99 30.1262 3119.63 31.9138 3135.12 30.4271C3137.02 30.2446 3138.79 31.1875 3139.12 33.0676C3139.31 34.0936 3139.47 35.3553 3139.61 36.8524C3139.7 37.8238 3138.92 38.6538 3137.95 38.6538C3136.98 38.6538 3136.21 39.4699 3136.27 40.436L3147.14 217.233L3177.45 571.669C3177.45 574.565 3182.5 626.872 3183.79 632.624C3183.87 632.945 3183.93 633.253 3183.93 633.583C3183.93 633.913 3184.01 634.236 3184.15 634.535C3185.03 636.415 3185.47 638.439 3185.47 640.606L3203.19 779.274C3203.8 784.046 3203.54 789.007 3199.84 792.08C3197.06 794.389 3193.02 795.107 3189.41 795.107H3177.45L2894.46 799.553C2891.59 799.598 2888.74 798.982 2886.22 797.609C2885.55 797.242 2884.84 796.852 2884.11 796.439C2879.54 793.854 2876.95 788.817 2877.27 783.569L2878.81 728.39Z" fill="black"/>
<path d="M2922.38 787.766C2924.17 792.197 2924.47 797.415 2919.92 798.858C2915.3 800.321 2907.65 801.052 2896.98 801.052H2849.78L2817.96 801.559H2786.66L2736.89 802.065C2689.07 802.065 2649.04 800.967 2616.8 798.772C2614.42 798.61 2612.09 797.909 2611.04 795.778C2610.59 794.883 2610.12 793.773 2609.64 792.448L2607.58 783.916C2607.24 782.52 2607.01 781.1 2606.87 779.67C2604.28 752.267 2598.6 725.6 2589.82 699.67C2585.99 688.356 2575.09 681.167 2563.15 681.277L2386.02 682.91C2372.69 683.033 2361.08 692.194 2357.7 705.083C2355.65 712.903 2353.08 722.622 2350 734.241C2343.71 757.912 2338.74 776.759 2335.08 790.781C2333.75 795.849 2330.79 800.284 2325.65 801.279C2317.71 802.815 2303.93 803.583 2284.32 803.583L2271.49 803.077H2241.73L2108.32 806.114H2092.92L2078.55 806.62H2048.04C2044.58 806.62 2041.53 805.626 2039.28 802.996C2036.6 799.872 2035.61 795.211 2036.77 791.263C2070.8 675.607 2116.54 532.93 2174 363.232L2185.72 327.539C2185.76 327.419 2185.67 327.295 2185.54 327.295C2185.41 327.295 2185.32 327.172 2185.36 327.052L2199.14 285.285C2203.59 271.788 2216.24 234.332 2237.11 172.919C2258.32 111.507 2271.49 71.858 2276.62 53.9741C2279.26 45.3383 2281.39 38.7089 2282.99 34.0858C2284.85 28.7362 2289.39 26.1358 2295.05 26.1358H2371.55L2553.71 23.605L2602.96 26.1358L2643.5 23.605C2659.48 23.605 2669.24 26.0584 2672.78 30.9653C2674.75 33.7044 2674.87 37.3469 2676.02 40.5228C2710.03 134.451 2755.12 268.341 2811.29 442.192C2868.42 619.007 2900.58 718.381 2907.76 740.314L2914.94 765.622C2916.8 772.698 2919.28 780.079 2922.38 787.766ZM2417.21 518.114L2438.25 518.62L2528.08 518.25C2545.51 518.178 2558.95 502.853 2556.69 485.572C2553.56 461.579 2551.02 442.901 2549.09 429.538L2529.59 342.986C2509.06 253.566 2498.46 208.013 2497.77 206.325C2497.31 205.167 2496.84 204.088 2496.37 203.089C2495.95 202.207 2495.55 200.818 2495.26 199.89C2494.9 198.776 2494.43 198.201 2493.9 197.158C2493.77 196.914 2493.64 196.654 2493.5 196.376C2493.27 195.924 2493.05 195.252 2492.87 194.78C2492.33 193.396 2491.26 192.441 2490.45 191.197C2490.33 191.016 2490.21 190.828 2490.08 190.635C2488.67 188.255 2486.38 186.049 2483.2 184.019C2478.28 180.878 2472.57 181.788 2470.07 187.065C2457.66 213.327 2431.83 312.542 2392.58 484.708L2391.98 488.263C2389.35 503.877 2401.38 518.114 2417.21 518.114Z" fill="black"/>
<path d="M1592.31 27.7033L1757.02 26.1639C1791.91 26.1639 1823.56 26.8481 1851.95 28.2164C1928.23 30.2689 1986.22 48.2281 2025.9 82.0942C2065.92 115.96 2085.93 163.68 2085.93 225.255C2085.93 268.015 2073.45 304.618 2048.48 335.063C2036 350.099 2020.67 364.239 2002.48 377.482C1981.21 392.967 1983.36 432.124 2003.73 448.775C2041.86 479.947 2066.36 526.708 2077.21 589.058C2080.97 609.241 2083.88 632.332 2085.93 658.33C2088.33 684.328 2090.21 701.774 2091.58 710.668L2096.71 736.837C2101.96 766.367 2106.58 788.029 2110.57 801.823C2110.87 802.861 2110.5 803.974 2109.64 804.622C2109.24 804.923 2108.76 805.1 2108.26 805.132C2050.4 808.862 1997.46 810.727 1949.44 810.727C1901.55 810.727 1859.13 809.872 1822.19 808.161H1819.11C1808.51 808.161 1797.22 757.704 1785.24 656.79L1782.68 634.726C1781.31 597.097 1774.64 571.783 1762.67 558.784C1751.04 545.785 1730.68 539.286 1701.61 539.286L1694.93 539.799C1679.92 539.799 1667.74 551.974 1667.74 566.994V695.788L1668.25 712.208V801.853C1668.25 804.675 1668.14 807.769 1666.11 809.731C1664.77 811.028 1662.91 811.873 1660.56 812.266C1622.93 813.635 1569.73 814.319 1500.97 814.319C1433.51 814.319 1388.67 814.485 1366.44 814.818C1365.81 814.827 1365.21 814.731 1364.61 814.533L1363.13 814.037C1362.68 813.889 1362.2 813.923 1361.78 814.132C1361.53 814.255 1361.26 814.329 1360.99 814.267C1360.8 814.221 1360.59 814.147 1360.35 814.042C1358.98 813.431 1358.35 811.89 1358.38 810.39L1359.35 766.598L1358.84 751.205L1360.89 538.259V500.801L1361.41 462.317L1361.92 329.419L1362.43 311.973L1360.89 195.494C1360.89 195.494 1361.58 140.932 1362.94 31.8082C1362.94 29.0716 1372.69 27.7033 1392.19 27.7033L1425.03 28.2164H1456.33L1521.5 28.7295L1592.31 27.7033ZM2112.15 802.148C2112.71 802.024 2112.92 802.747 2112.43 803.038C2112.06 803.26 2111.59 802.993 2111.59 802.56V802.517C2111.59 802.356 2111.78 802.234 2112.15 802.148ZM2111.33 803.543C2111.47 803.543 2111.59 803.658 2111.59 803.8C2111.59 803.941 2111.47 804.067 2111.34 804.014C2111.23 803.972 2111.16 803.899 2111.12 803.795C2111.07 803.663 2111.19 803.543 2111.33 803.543ZM1782.17 194.981C1761.64 186.087 1734.27 181.64 1700.07 181.64H1685.56C1676.01 181.64 1668.04 186.926 1667 196.419C1665.44 210.691 1664.66 234.671 1664.66 268.357C1664.66 301.047 1665 326.976 1665.67 346.145C1666.21 361.325 1679.02 372.917 1694.15 371.608C1783.27 363.897 1827.83 327.427 1827.83 262.2C1827.83 231.755 1812.61 209.348 1782.17 194.981Z" fill="black"/>
<path d="M1367.78 217.168C1367.78 228.464 1366.55 234.112 1364.1 234.112C1364.1 234.112 1310.23 233.676 1202.5 232.804C1186.63 232.676 1173.56 245.323 1173.37 261.191C1172.97 293.064 1172.78 335.384 1172.78 388.15C1172.78 458.664 1172.95 507.614 1173.3 534.998L1175.36 801.88C1175.39 805.352 1175.13 809.104 1172.7 811.582C1170.78 813.535 1168.18 814.618 1164.89 814.832L1054.35 813.297C1054.12 813.294 1053.89 813.384 1053.72 813.548C1053.56 813.713 1053.33 813.803 1053.09 813.8L1018.77 813.292H922.583C903.277 813.292 887.565 813.387 875.446 813.577C868.233 813.689 861.212 811.196 855.748 806.486L855.304 806.104C855.26 806.061 855.187 805.981 855.083 805.863C850.646 800.844 848.465 794.248 848.509 787.549C848.733 753.765 849.947 690.291 852.151 597.127L857.932 323.967L856.881 311.131C854.428 277.243 851.975 257.218 849.522 251.056C847.42 244.553 843.04 241.13 836.382 240.787C829.724 240.103 824.818 239.76 821.665 239.76L800.64 240.787L687.707 239.008C676.987 238.839 667.368 232.582 665.803 221.975C664.237 211.36 663.454 196.922 663.454 178.659L664.505 133.475V119.611C664.211 73.6536 663.794 45.6523 663.253 35.6076C663.146 33.6233 664.514 32.0157 666.411 32.6068C666.738 32.7088 667.308 32.8358 667.651 32.8329L1336.24 27.1892C1349.91 27.1892 1358.49 28.2161 1362 30.27C1365.5 31.9815 1367.25 35.4045 1367.25 40.5391V176.092L1367.78 217.168Z" fill="black"/>
<path d="M4.61809 587.524L276.059 582.906C282.901 582.906 288.545 588.722 292.992 600.352C297.782 611.983 302.4 621.219 306.847 628.061C317.451 644.481 334.897 652.691 359.185 652.691C383.815 652.691 403.656 647.046 418.707 635.758C433.759 624.127 441.285 609.246 441.285 591.116C441.285 572.986 436.666 560.671 427.43 554.171C418.194 547.33 408.103 540.83 397.156 534.673C386.21 528.173 369.961 523.213 348.41 519.792C328.382 516.562 316.895 514.552 313.949 513.762C313.868 513.74 313.889 513.635 313.973 513.635C314.059 513.635 314.075 513.511 313.991 513.489L285.296 505.938C266.481 502.517 250.745 498.754 238.088 494.649C156.331 472.756 97.151 445.219 60.5483 412.037C24.2878 378.855 6.15746 334.213 6.15746 278.112C6.15746 237.404 13.6832 200.802 28.7348 168.304C43.7864 135.806 63.456 109.295 87.7438 88.77C157.87 29.59 254.679 0 378.171 0C476.215 0 553.278 17.7401 609.361 53.2204C609.427 53.2625 609.397 53.3647 609.318 53.3647C609.242 53.3647 609.211 53.4631 609.273 53.5078C645.084 79.457 669.648 105.065 682.965 130.333C695.057 152.966 703.074 180.518 707.016 212.987C707.801 219.451 705.444 225.872 700.839 230.477C696.935 234.38 691.701 236.667 686.185 236.871C599.722 240.077 522.878 241.68 455.652 241.68C434.785 241.68 422.299 235.523 418.194 223.208C416.484 218.077 414.602 212.945 412.55 207.814C407.761 195.499 392.367 189.342 366.369 189.342H364.316C344.134 189.342 326.858 194.131 312.491 203.709C298.124 212.945 290.769 222.011 290.427 230.905C290.427 239.799 292.308 247.154 296.071 252.969C300.176 258.784 304.452 263.402 308.899 266.823C313.346 270.244 320.188 273.836 329.424 277.599C338.66 281.02 345.502 283.414 349.949 284.783C354.738 285.809 362.093 287.69 372.013 290.427L389.972 295.045C397.156 297.097 418.023 302.229 452.573 310.439C487.345 318.62 516.342 326.462 539.563 333.964C539.683 334.003 539.804 333.913 539.804 333.787C539.804 333.661 539.93 333.572 540.051 333.613C612.779 358.228 662.299 388.988 688.609 425.891C715.291 462.494 728.633 505.254 728.633 554.171C728.633 684.504 650.809 768.998 495.162 807.653C450.008 818.942 401.774 826.981 350.462 831.77C287.519 831.77 225.26 822.534 163.686 804.062C103.03 785.865 62.1248 756.382 40.9709 715.612C40.3311 714.379 39.6231 713.18 38.8378 712.034C25.4667 692.52 16.4547 674.62 11.8018 658.335C7.25892 642.111 3.48555 619.884 0.481705 591.655C0.250109 589.478 2.42936 587.524 4.61809 587.524Z" fill="black"/>
</svg>
